<svg width="64" height="64" viewBox="0 0 64 64" fill="none" xmlns="http://www.w3.org/2000/svg">
<g clip-path="url(#clip0_407_653)">
<path opacity="0.3" d="M49.3064 26.3471L49.5198 24.0804L49.9998 18.8804L44.9331 17.7337L42.6931 17.2271L41.5198 15.2537L38.8798 10.7737L34.1064 12.8004L31.9998 13.7071L29.8931 12.8004L25.1198 10.7471L22.4798 15.2271L21.3064 17.2004L19.0664 17.7071L13.9998 18.8537L14.4798 24.0271L14.6931 26.2937L13.1998 28.0271L9.75977 31.9737L13.1998 35.8937L14.6931 37.6271L14.4798 39.8937L13.9998 45.1204L19.0664 46.2671L21.3064 46.7737L22.4798 48.7471L25.1198 53.2004L29.8664 51.1471L31.9998 50.2671L34.1064 51.1737L38.8531 53.2271L41.4931 48.7471L42.6664 46.7737L44.9064 46.2671L49.9731 45.1204L49.4931 39.9204L49.2798 37.6537L50.7731 35.9204L54.2131 32.0004L50.7731 28.0804L49.3064 26.3471ZM26.9064 44.5871L16.7731 34.4271L20.7198 30.4804L26.9064 36.6937L42.5064 21.0404L46.4531 24.9871L26.9064 44.5871Z" fill="white"/>
<path d="M61.3327 31.9733L54.826 24.5333L55.7327 14.6933L46.106 12.5067L41.066 4L31.9993 7.89333L22.9327 4L17.8927 12.5067L8.26602 14.6667L9.17268 24.5333L2.66602 31.9733L9.17268 39.4133L8.26602 49.28L17.8927 51.4667L22.9327 60L31.9993 56.08L41.066 59.9733L46.106 51.4667L55.7327 49.28L54.826 39.44L61.3327 31.9733ZM50.7993 35.92L49.306 37.6533L49.5193 39.92L49.9994 45.12L44.9327 46.2667L42.6927 46.7733L41.5193 48.7467L38.8793 53.2267L34.1327 51.1733L31.9993 50.2667L29.8927 51.1733L25.146 53.2267L22.506 48.7733L21.3327 46.8L19.0927 46.2933L14.026 45.1467L14.506 39.92L14.7193 37.6533L13.226 35.92L9.78602 32L13.226 28.0533L14.7193 26.32L14.4793 24.0267L13.9993 18.8533L19.066 17.7067L21.306 17.2L22.4794 15.2267L25.1194 10.7467L29.866 12.8L31.9993 13.7067L34.106 12.8L38.8527 10.7467L41.4927 15.2267L42.666 17.2L44.906 17.7067L49.9727 18.8533L49.4927 24.0533L49.2794 26.32L50.7727 28.0533L54.2127 31.9733L50.7993 35.92Z" fill="white"/>
<path d="M26.9068 36.6663L20.7201 30.453L16.7734 34.4263L26.9068 44.5863L46.4801 24.9597L42.5334 20.9863L26.9068 36.6663Z" fill="white"/>
</g>
<defs>
<clipPath id="clip0_407_653">
<rect width="64" height="64" fill="white"/>
</clipPath>
</defs>
</svg>
