<svg width="106" height="18" viewBox="0 0 106 18" fill="none" xmlns="http://www.w3.org/2000/svg">
<path d="M31.0027 0.0982533C30.7745 1.45857 30.5711 2.72041 30.3498 3.97879C29.5885 8.30566 28.8278 12.6325 28.0504 16.9565C27.8453 18.1009 28.066 17.9051 26.8881 17.9137C25.8047 17.9218 24.7218 17.9154 23.5687 17.9154C23.9911 15.4885 24.3939 13.1566 24.8031 10.8253C25.2123 8.49514 25.6278 6.16555 26.0409 3.83538C25.9879 3.78758 25.9361 3.73978 25.883 3.69198C25.6877 3.85151 25.4301 3.97361 25.3062 4.1769C23.718 6.77775 22.1499 9.39011 20.5755 11.9996C19.4518 13.8627 18.3332 15.7298 17.1899 17.5814C17.0896 17.7438 16.8245 17.8935 16.6338 17.8964C14.8473 17.9212 13.0608 17.8953 11.2749 17.9241C10.7805 17.9316 10.7782 17.6033 10.7021 17.3015C9.6354 13.0604 8.57735 8.81823 7.49913 4.58062C7.42364 4.2846 7.20177 4.02544 7.04791 3.749C6.91075 4.0335 6.70444 4.30534 6.64566 4.60539C5.79046 9.0031 4.95486 13.4048 4.10484 17.8584H0C0.212071 16.5902 0.409736 15.3526 0.626994 14.1184C1.39172 9.76964 2.15068 5.42031 2.94133 1.07616C3.14303 -0.0330563 2.86411 0.109196 4.0985 0.102283C6.2342 0.0907669 8.36932 0.110346 10.5039 0.0936451C10.9263 0.090189 11.0986 0.212284 11.1994 0.644798C12.2235 5.02926 13.274 9.40739 14.3194 13.7867C14.3621 13.9646 14.4254 14.138 14.5395 14.51C15.0496 13.645 15.4633 12.9447 15.8759 12.2444C18.0975 8.47671 20.3317 4.71712 22.5268 0.934486C22.8835 0.319981 23.2569 0.0550594 23.9998 0.0769444C26.068 0.138567 28.1386 0.0982533 30.2086 0.0982533H31.0027Z" fill="white"/>
<path d="M54.6718 0.122105H58.9766C58.7663 1.32289 58.564 2.47128 58.3646 3.62023C57.5826 8.11873 56.7908 12.6155 56.0341 17.1186C55.9327 17.7222 55.742 17.9399 55.0937 17.9237C53.0692 17.8742 51.043 17.8938 49.0174 17.9139C48.6157 17.918 48.3932 17.7861 48.1962 17.4388C45.6899 13.0336 43.1721 8.63417 40.6417 4.2428C40.5201 4.03144 40.2516 3.90474 40.051 3.73829C39.9317 3.95714 39.7456 4.1639 39.7035 4.39599C38.899 8.86742 38.1118 13.3417 37.3131 17.8587H33.002C33.157 16.9401 33.3016 16.0503 33.4566 15.1628C34.2807 10.4506 35.0996 5.73731 35.9393 1.02745C36.1398 -0.0990467 35.9502 0.0961895 37.0613 0.0875492C38.9342 0.0743046 40.8071 0.0990677 42.68 0.0754547C43.1266 0.0696964 43.3848 0.206188 43.6107 0.597237C46.087 4.87055 48.5736 9.13753 51.0827 13.3913C51.2902 13.742 51.3553 14.4389 51.9414 14.2551C52.1742 14.1826 52.282 13.5456 52.3529 13.1494C53.083 9.03905 53.7941 4.92584 54.5128 0.813782C54.5502 0.600693 54.6096 0.391058 54.6718 0.122105Z" fill="white"/>
<path d="M70.2489 17.8934H65.9176C66.7463 13.1818 67.5652 8.52267 68.4008 3.77077H60.9766C61.1938 2.55904 61.3765 1.45039 61.6139 0.35327C61.6399 0.235783 61.9868 0.120024 62.1862 0.118296C64.4948 0.101593 66.8033 0.107353 69.1119 0.107353C72.75 0.107353 76.3869 0.107353 80.0244 0.106777H80.8669C80.66 1.30066 80.4911 2.3926 80.2595 3.47072C80.2307 3.60375 79.8647 3.74428 79.6532 3.74658C77.6069 3.76731 75.5588 3.75925 73.5112 3.75925H72.7471C71.9086 8.50251 71.0782 13.2014 70.2489 17.8934Z" fill="white"/>
<path d="M105.982 0.248556C102.805 3.07747 99.6294 5.90695 96.4063 8.77733C98.905 11.7923 101.371 14.7692 103.926 17.8515C103.609 17.8791 103.41 17.912 103.211 17.912C101.533 17.9148 99.8553 17.8947 98.1783 17.9218C97.7277 17.9292 97.4735 17.7634 97.2229 17.4098C95.7124 15.2806 94.1784 13.1687 92.5999 10.9785C91.8894 11.6333 91.2065 12.2559 90.5305 12.8859C88.8743 14.4288 87.2273 15.9815 85.5595 17.5123C85.3526 17.7023 85.0478 17.8918 84.785 17.8964C82.9115 17.9275 81.038 17.9102 79.164 17.9062C79.1063 17.9056 79.0487 17.8728 78.8672 17.8164C82.4551 14.7784 85.9791 11.7928 89.5566 8.7635C87.3541 5.91329 85.1665 3.08265 82.9006 0.151226C83.2089 0.122431 83.3898 0.0913296 83.5708 0.0907536C85.0962 0.0867233 86.6216 0.103424 88.1465 0.0780849C88.5654 0.0711727 88.8195 0.208242 89.0604 0.548609C90.2793 2.27233 91.5235 3.97878 92.7601 5.69098C92.9486 5.95245 93.1428 6.21046 93.3768 6.52722C94.4994 5.4848 95.5805 4.48386 96.6581 3.47946C97.7715 2.44108 98.8779 1.39521 99.9965 0.362587C100.13 0.239342 100.322 0.10285 100.487 0.101122C102.292 0.0821171 104.097 0.0896034 105.902 0.0896034C105.928 0.142588 105.955 0.195572 105.982 0.248556Z" fill="white"/>
</svg>
