<svg width="106" height="18" viewBox="0 0 106 18" fill="none" xmlns="http://www.w3.org/2000/svg">
<path d="M31.0027 0.097887C30.7745 1.45821 30.5711 2.72004 30.3498 3.97842C29.5885 8.30529 28.8278 12.6322 28.0504 16.9562C27.8453 18.1005 28.066 17.9047 26.8881 17.9133C25.8047 17.9214 24.7218 17.9151 23.5687 17.9151C23.9911 15.4881 24.3939 13.1563 24.8031 10.8249C25.2123 8.49477 25.6278 6.16518 26.0409 3.83502C25.9879 3.78722 25.9361 3.73942 25.883 3.69162C25.6877 3.85114 25.4301 3.97324 25.3062 4.17654C23.718 6.77738 22.1499 9.38975 20.5755 11.9992C19.4518 13.8623 18.3332 15.7295 17.1899 17.581C17.0896 17.7434 16.8245 17.8932 16.6338 17.8961C14.8473 17.9208 13.0608 17.8949 11.2749 17.9237C10.7805 17.9312 10.7782 17.6029 10.7021 17.3011C9.6354 13.0601 8.57735 8.81786 7.49913 4.58026C7.42364 4.28424 7.20177 4.02507 7.04791 3.74863C6.91075 4.03313 6.70444 4.30497 6.64566 4.60502C5.79046 9.00273 4.95486 13.4045 4.10484 17.858H0C0.212071 16.5899 0.409736 15.3522 0.626994 14.118C1.39172 9.76928 2.15068 5.41995 2.94133 1.0758C3.14303 -0.0334225 2.86411 0.108829 4.0985 0.101917C6.2342 0.0904007 8.36932 0.10998 10.5039 0.0932789C10.9263 0.0898228 11.0986 0.211918 11.1994 0.644432C12.2235 5.0289 13.274 9.40703 14.3194 13.7863C14.3621 13.9643 14.4254 14.1376 14.5395 14.5097C15.0496 13.6446 15.4633 12.9443 15.8759 12.244C18.0975 8.47634 20.3317 4.71675 22.5268 0.93412C22.8835 0.319614 23.2569 0.0546932 23.9998 0.0765781C26.068 0.138201 28.1386 0.097887 30.2086 0.097887H31.0027Z" fill="#303030"/>
<path d="M54.6718 0.122349H58.9766C58.7663 1.32314 58.564 2.47152 58.3646 3.62048C57.5826 8.11897 56.7908 12.6157 56.0341 17.1188C55.9327 17.7224 55.742 17.9401 55.0937 17.924C53.0692 17.8744 51.043 17.894 49.0174 17.9142C48.6157 17.9182 48.3932 17.7863 48.1962 17.4391C45.6899 13.0339 43.1721 8.63442 40.6417 4.24304C40.5201 4.03168 40.2516 3.90498 40.051 3.73854C39.9317 3.95739 39.7456 4.16414 39.7035 4.39624C38.899 8.86767 38.1118 13.342 37.3131 17.8589H33.002C33.157 16.9403 33.3016 16.0505 33.4566 15.163C34.2807 10.4509 35.0996 5.73755 35.9393 1.02769C36.1398 -0.0988026 35.9502 0.0964336 37.0613 0.0877934C38.9342 0.0745487 40.8071 0.0993118 42.68 0.0756989C43.1266 0.0699406 43.3848 0.206432 43.6107 0.597481C46.087 4.87079 48.5736 9.13777 51.0827 13.3915C51.2902 13.7422 51.3553 14.4391 51.9414 14.2554C52.1742 14.1828 52.282 13.5458 52.3529 13.1496C53.083 9.03929 53.7941 4.92608 54.5128 0.814026C54.5502 0.600937 54.6096 0.391302 54.6718 0.122349Z" fill="#303030"/>
<path d="M70.2489 17.8936H65.9176C66.7463 13.182 67.5652 8.52279 68.4008 3.77089H60.9766C61.1938 2.55916 61.3765 1.45052 61.6139 0.353392C61.6399 0.235905 61.9868 0.120146 62.1862 0.118418C64.4948 0.101715 66.8033 0.107475 69.1119 0.107475C72.75 0.107475 76.3869 0.107475 80.0244 0.106899H80.8669C80.66 1.30078 80.4911 2.39272 80.2595 3.47084C80.2307 3.60387 79.8647 3.7444 79.6532 3.7467C77.6069 3.76744 75.5588 3.75937 73.5112 3.75937H72.7471C71.9086 8.50263 71.0782 13.2015 70.2489 17.8936Z" fill="#303030"/>
<path d="M105.982 0.248434C102.805 3.07734 99.6294 5.90683 96.4063 8.77721C98.905 11.7921 101.371 14.7691 103.926 17.8514C103.609 17.879 103.41 17.9118 103.211 17.9118C101.533 17.9147 99.8553 17.8946 98.1783 17.9216C97.7277 17.9291 97.4735 17.7633 97.2229 17.4096C95.7124 15.2805 94.1784 13.1686 92.5999 10.9784C91.8894 11.6332 91.2065 12.2558 90.5305 12.8858C88.8743 14.4287 87.2273 15.9814 85.5595 17.5122C85.3526 17.7022 85.0478 17.8917 84.785 17.8963C82.9115 17.9274 81.038 17.9101 79.164 17.9061C79.1063 17.9055 79.0487 17.8727 78.8672 17.8162C82.4551 14.7783 85.9791 11.7927 89.5566 8.76338C87.3541 5.91317 85.1665 3.08253 82.9006 0.151104C83.2089 0.122309 83.3898 0.0912075 83.5708 0.0906315C85.0962 0.0866013 86.6216 0.103302 88.1465 0.0779629C88.5654 0.0710506 88.8195 0.20812 89.0604 0.548487C90.2793 2.27221 91.5235 3.97866 92.7601 5.69086C92.9486 5.95233 93.1428 6.21034 93.3768 6.52709C94.4994 5.48468 95.5805 4.48374 96.6581 3.47933C97.7715 2.44095 98.8779 1.39509 99.9965 0.362465C100.13 0.23922 100.322 0.102728 100.487 0.101C102.292 0.081995 104.097 0.0894814 105.902 0.0894814C105.928 0.142466 105.955 0.19545 105.982 0.248434Z" fill="#303030"/>
</svg>
