<svg width="48" height="48" viewBox="0 0 48 48" fill="none" xmlns="http://www.w3.org/2000/svg">
<path d="M37.0909 0H10.9091C8.01688 0.00346439 5.24413 1.15392 3.19903 3.199C1.15392 5.24409 0.00346442 8.01683 0 10.909V28.3634C0.00317351 30.8773 0.872924 33.3133 2.46266 35.2607C4.05239 37.2081 6.2649 38.5479 8.72727 39.0543V45.8179C8.72721 46.2129 8.83439 46.6005 9.03736 46.9393C9.24034 47.2782 9.5315 47.5556 9.87979 47.7419C10.2281 47.9283 10.6204 48.0166 11.0149 47.9974C11.4095 47.9783 11.7914 47.8524 12.12 47.6331L24.6545 39.2725H37.0909C39.9831 39.269 42.7559 38.1185 44.801 36.0735C46.8461 34.0284 47.9965 31.2556 48 28.3634V10.909C47.9965 8.01683 46.8461 5.24409 44.801 3.199C42.7559 1.15392 39.9831 0.00346439 37.0909 0ZM32.7273 26.1816H15.2727C14.6941 26.1816 14.1391 25.9518 13.7299 25.5426C13.3208 25.1334 13.0909 24.5785 13.0909 23.9998C13.0909 23.4212 13.3208 22.8662 13.7299 22.4571C14.1391 22.0479 14.6941 21.818 15.2727 21.818H32.7273C33.3059 21.818 33.8609 22.0479 34.2701 22.4571C34.6792 22.8662 34.9091 23.4212 34.9091 23.9998C34.9091 24.5785 34.6792 25.1334 34.2701 25.5426C33.8609 25.9518 33.3059 26.1816 32.7273 26.1816ZM37.0909 17.4544H10.9091C10.3304 17.4544 9.77548 17.2246 9.36631 16.8154C8.95714 16.4062 8.72727 15.8513 8.72727 15.2726C8.72727 14.694 8.95714 14.139 9.36631 13.7299C9.77548 13.3207 10.3304 13.0908 10.9091 13.0908H37.0909C37.6696 13.0908 38.2245 13.3207 38.6337 13.7299C39.0429 14.139 39.2727 14.694 39.2727 15.2726C39.2727 15.8513 39.0429 16.4062 38.6337 16.8154C38.2245 17.2246 37.6696 17.4544 37.0909 17.4544Z" fill="white"/>
</svg>
