<svg width="64" height="64" viewBox="0 0 64 64" fill="none" xmlns="http://www.w3.org/2000/svg">
<g clip-path="url(#clip0_592_982)">
<path opacity="0.3" d="M29.3333 26.6667C32.2789 26.6667 34.6667 24.2789 34.6667 21.3333C34.6667 18.3878 32.2789 16 29.3333 16C26.3878 16 24 18.3878 24 21.3333C24 24.2789 26.3878 26.6667 29.3333 26.6667Z" fill="white"/>
<path opacity="0.3" d="M13.334 48.0005H26.6407L24.0007 45.3338L26.4807 42.8271C20.134 43.5471 13.8673 46.3205 13.334 48.0005Z" fill="white"/>
<path d="M29.3333 32.0003C35.2267 32.0003 40 27.227 40 21.3337C40 15.4403 35.2267 10.667 29.3333 10.667C23.44 10.667 18.6667 15.4403 18.6667 21.3337C18.6667 27.227 23.44 32.0003 29.3333 32.0003ZM29.3333 16.0003C32.2667 16.0003 34.6667 18.4003 34.6667 21.3337C34.6667 24.267 32.2667 26.667 29.3333 26.667C26.4 26.667 24 24.267 24 21.3337C24 18.4003 26.4 16.0003 29.3333 16.0003ZM26.6667 48.0003H13.3333C13.8667 46.3203 20.1333 43.547 26.48 42.827H26.56L27.7867 41.627L32 37.4937C30.96 37.387 30.1867 37.3337 29.3333 37.3337C22.2133 37.3337 8 40.907 8 48.0003V53.3337H32L26.6667 48.0003ZM54.9333 33.3337L41.2533 47.1203L35.7333 41.5737L32 45.3337L41.2533 54.667L58.6667 37.0937L54.9333 33.3337Z" fill="white"/>
</g>
<defs>
<clipPath id="clip0_592_982">
<rect width="64" height="64" fill="white"/>
</clipPath>
</defs>
</svg>
