<svg width="894" height="215" viewBox="0 0 894 215" fill="none" xmlns="http://www.w3.org/2000/svg">
<path fill-rule="evenodd" clip-rule="evenodd" d="M8.31608 -562.551C56.9581 -930.497 392.893 -1189.56 758.626 -1141.21C1124.36 -1092.86 1381.43 -755.402 1332.79 -387.457C1284.15 -19.5114 948.216 239.549 582.483 191.2C553.918 187.423 526.016 181.884 498.871 174.704C498.644 175.337 498.406 175.963 498.155 176.583C525.445 183.811 553.499 189.385 582.221 193.182C949.06 241.678 1285.99 -18.1653 1334.78 -387.195C1383.56 -756.224 1125.73 -1094.69 758.888 -1143.19C392.049 -1191.69 55.1187 -931.843 6.33333 -562.813C-34.07 -257.189 135.834 27.4766 403.792 143.821C403.98 143.175 404.179 142.534 404.391 141.9C137.352 25.8494 -31.9586 -257.9 8.31608 -562.551Z" fill="white" fill-opacity="0.2"/>
<circle cx="451.804" cy="157.803" r="49" transform="rotate(8.44758 451.804 157.803)" stroke="white" stroke-opacity="0.2" stroke-width="2"/>
</svg>
