<svg width="1341" height="1357" viewBox="0 0 1341 1357" fill="none" xmlns="http://www.w3.org/2000/svg">
<path fill-rule="evenodd" clip-rule="evenodd" d="M497.747 1325.59C525.037 1332.82 553.091 1338.4 581.812 1342.19C948.651 1390.69 1285.58 1130.85 1334.37 761.817C1383.15 392.788 1125.32 54.3172 758.48 5.82133C391.641 -42.6745 54.7105 217.169 5.92512 586.198C-34.4782 891.823 135.426 1176.49 403.384 1292.83C402.761 1294.98 402.276 1297.2 401.938 1299.47C397.881 1326.78 416.736 1352.22 444.05 1356.27C467.356 1359.73 489.29 1346.52 497.747 1325.59ZM758.218 7.80408C392.485 -40.5455 56.5499 218.515 7.90787 586.46C-32.3668 891.112 136.944 1174.86 403.983 1290.91C411.525 1268.34 434.384 1253.74 458.741 1257.36C486.055 1261.41 504.91 1286.85 500.853 1314.16C500.36 1317.48 499.552 1320.67 498.463 1323.72C525.608 1330.9 553.51 1336.44 582.074 1340.21C947.807 1388.56 1283.74 1129.5 1332.38 761.555C1381.03 393.61 1123.95 56.1537 758.218 7.80408ZM498.875 1313.87C494.98 1340.09 470.566 1358.19 444.344 1354.29C418.122 1350.4 400.022 1325.99 403.916 1299.76C407.811 1273.54 432.225 1255.44 458.447 1259.34C484.669 1263.23 502.769 1287.64 498.875 1313.87Z" fill="white" fill-opacity="0.2"/>
</svg>
