<svg width="1265" height="632" viewBox="0 0 1265 632" fill="none" xmlns="http://www.w3.org/2000/svg">
<path fill-rule="evenodd" clip-rule="evenodd" d="M403.988 67.0657C403.76 66.4381 403.545 65.8046 403.341 65.1656C165.994 168.247 0 404.738 0 680C0 1050.03 299.969 1350 670 1350C1040.03 1350 1340 1050.03 1340 680C1340 309.969 1040.03 10 670 10C610.464 10 552.742 17.7653 497.791 32.3383C498.027 32.963 498.251 33.5936 498.462 34.23C553.202 19.7273 610.699 12 670 12C1038.93 12 1338 311.074 1338 680C1338 1048.93 1038.93 1348 670 1348C301.074 1348 2 1048.93 2 680C2 405.618 167.429 169.874 403.988 67.0657Z" fill="white" fill-opacity="0.2"/>
<circle cx="451" cy="50" r="49" stroke="white" stroke-opacity="0.2" stroke-width="2"/>
</svg>
