<svg width="1340" height="1350" viewBox="0 0 1340 1350" fill="none" xmlns="http://www.w3.org/2000/svg">
<path fill-rule="evenodd" clip-rule="evenodd" d="M497.791 32.3383C552.742 17.7653 610.464 10 670 10C1040.03 10 1340 309.969 1340 680C1340 1050.03 1040.03 1350 670 1350C299.969 1350 0 1050.03 0 680C0 404.738 165.994 168.247 403.341 65.1656C401.821 60.3823 401 55.287 401 50C401 22.3858 423.386 0 451 0C472.397 0 490.654 13.4399 497.791 32.3383ZM499 50C499 76.5097 477.51 98 451 98C424.49 98 403 76.5097 403 50C403 23.4903 424.49 2 451 2C477.51 2 499 23.4903 499 50ZM501 50C501 77.6142 478.614 100 451 100C429.379 100 410.963 86.2769 403.988 67.0657C167.429 169.874 2 405.618 2 680C2 1048.93 301.074 1348 670 1348C1038.93 1348 1338 1048.93 1338 680C1338 311.074 1038.93 12 670 12C610.699 12 553.202 19.7273 498.462 34.23C500.109 39.1876 501 44.4897 501 50Z" fill="white" fill-opacity="0.2"/>
</svg>
