<svg width="64" height="64" viewBox="0 0 64 64" fill="none" xmlns="http://www.w3.org/2000/svg">
<g clip-path="url(#clip0_916_1663)">
<path d="M40.026 50.6663C41.4988 50.6663 42.6927 49.4724 42.6927 47.9997C42.6927 46.5269 41.4988 45.333 40.026 45.333C38.5533 45.333 37.3594 46.5269 37.3594 47.9997C37.3594 49.4724 38.5533 50.6663 40.026 50.6663Z" fill="white"/>
<path d="M18.6667 48C24.56 48 29.3333 43.2267 29.3333 37.3333C29.3333 31.44 24.56 26.6667 18.6667 26.6667C12.7733 26.6667 8 31.44 8 37.3333C8 43.2267 12.7733 48 18.6667 48ZM18.6667 32C21.6 32 24 34.4 24 37.3333C24 40.2667 21.6 42.6667 18.6667 42.6667C15.7333 42.6667 13.3333 40.2667 13.3333 37.3333C13.3333 34.4 15.7333 32 18.6667 32ZM48.0267 48C48.0267 43.6 44.4267 40 40.0267 40C35.6267 40 32.0267 43.6 32.0267 48C32.0267 52.4 35.6267 56 40.0267 56C44.4267 56 48.0267 52.4 48.0267 48ZM37.36 48C37.36 46.5333 38.56 45.3333 40.0267 45.3333C41.4933 45.3333 42.6933 46.5333 42.6933 48C42.6933 49.4667 41.4933 50.6667 40.0267 50.6667C38.56 50.6667 37.36 49.4667 37.36 48ZM44 37.3333C52.08 37.3333 58.6667 30.7467 58.6667 22.6667C58.6667 14.5867 52.08 8 44 8C35.92 8 29.3333 14.5867 29.3333 22.6667C29.3333 30.7467 35.92 37.3333 44 37.3333ZM44 13.3333C49.1467 13.3333 53.3333 17.52 53.3333 22.6667C53.3333 27.8133 49.1467 32 44 32C38.8533 32 34.6667 27.8133 34.6667 22.6667C34.6667 17.52 38.8533 13.3333 44 13.3333Z" fill="white"/>
</g>
<defs>
<clipPath id="clip0_916_1663">
<rect width="64" height="64" fill="white"/>
</clipPath>
</defs>
</svg>
