<svg width="1341" height="1391" viewBox="0 0 1341 1391" fill="none" xmlns="http://www.w3.org/2000/svg">
<path fill-rule="evenodd" clip-rule="evenodd" d="M842.794 65.3974C843.627 62.813 844.259 60.1261 844.671 57.3519C848.728 30.0373 829.874 4.60583 802.559 0.54918C775.244 -3.50747 749.813 15.3469 745.756 42.6615C745.54 44.1188 745.389 45.5708 745.301 47.0144C383.604 6.37553 54.1256 264.398 5.92512 629.003C-42.8602 998.032 214.973 1336.5 581.812 1385C948.651 1433.49 1285.58 1173.65 1334.37 804.622C1379.32 464.585 1163.94 150.493 842.826 65.2994C842.815 65.3321 842.805 65.3648 842.794 65.3974ZM842.693 57.0581C838.799 83.2802 814.385 101.38 788.162 97.4859C761.94 93.5916 743.84 69.1774 747.735 42.9553C751.629 16.7332 776.043 -1.36691 802.265 2.52748C828.487 6.42187 846.587 30.8361 842.693 57.0581ZM842.177 67.1967C834.209 89.0337 811.759 103.012 787.869 99.4642C762.687 95.7244 744.697 73.8183 745.218 49.0178C384.557 8.41904 55.9731 265.683 7.90786 629.265C-40.7342 997.21 216.341 1334.67 582.074 1383.02C947.807 1431.37 1283.74 1172.3 1332.38 804.36C1377.21 465.274 1162.4 152.083 842.177 67.1967Z" fill="white" fill-opacity="0.2"/>
</svg>
