<svg width="826" height="395" viewBox="0 0 826 395" fill="none" xmlns="http://www.w3.org/2000/svg">
<path fill-rule="evenodd" clip-rule="evenodd" d="M230.709 54.1981C-130.988 13.5592 -460.466 271.581 -508.667 636.187C-557.452 1005.22 -299.618 1343.69 67.2206 1392.18C434.06 1440.68 770.99 1180.83 819.775 811.805C864.728 471.769 649.347 157.677 328.234 72.4831C328.03 73.1219 327.813 73.7544 327.585 74.3804C647.806 159.267 862.619 472.458 817.792 811.543C769.15 1179.49 433.216 1438.55 67.4827 1390.2C-298.25 1341.85 -555.326 1004.39 -506.684 636.449C-458.619 272.867 -130.035 15.6027 230.627 56.2015C230.641 55.5357 230.668 54.8678 230.709 54.1981Z" fill="white" fill-opacity="0.2"/>
<circle cx="280.622" cy="57.1905" r="49" transform="rotate(8.44758 280.622 57.1905)" stroke="white" stroke-opacity="0.2" stroke-width="2"/>
</svg>
