<svg width="65" height="65" viewBox="0 0 65 65" fill="none" xmlns="http://www.w3.org/2000/svg">
<path d="M56.7675 31.6554L49.3846 29.5456C46.0599 28.6083 43.0313 26.8334 40.5887 24.3908C38.1462 21.9483 36.3713 18.9197 35.434 15.595L33.3242 8.21208C33.2181 7.95378 33.0376 7.73285 32.8056 7.57736C32.5737 7.42188 32.3007 7.33887 32.0215 7.33887C31.7422 7.33887 31.4693 7.42188 31.2373 7.57736C31.0054 7.73285 30.8249 7.95378 30.7188 8.21208L28.609 15.595C27.6716 18.9197 25.8968 21.9483 23.4542 24.3908C21.0116 26.8334 17.9831 28.6083 14.6583 29.5456L7.27543 31.6554C6.99195 31.7359 6.74245 31.9066 6.56479 32.1417C6.38714 32.3768 6.29102 32.6634 6.29102 32.9581C6.29102 33.2528 6.38714 33.5394 6.56479 33.7745C6.74245 34.0096 6.99195 34.1804 7.27543 34.2608L14.6583 36.3706C17.9831 37.308 21.0116 39.0828 23.4542 41.5254C25.8968 43.968 27.6716 46.9965 28.609 50.3212L30.7188 57.7042C30.7992 57.9876 30.97 58.2371 31.2051 58.4148C31.4402 58.5925 31.7268 58.6886 32.0215 58.6886C32.3161 58.6886 32.6028 58.5925 32.8379 58.4148C33.073 58.2371 33.2437 57.9876 33.3242 57.7042L35.434 50.3212C36.3713 46.9965 38.1462 43.968 40.5887 41.5254C43.0313 39.0828 46.0599 37.308 49.3846 36.3706L56.7675 34.2608C57.051 34.1804 57.3005 34.0096 57.4781 33.7745C57.6558 33.5394 57.7519 33.2528 57.7519 32.9581C57.7519 32.6634 57.6558 32.3768 57.4781 32.1417C57.3005 31.9066 57.051 31.7359 56.7675 31.6554Z" fill="white"/>
</svg>
