<svg width="1340" height="1386" viewBox="0 0 1340 1386" fill="none" xmlns="http://www.w3.org/2000/svg">
<path fill-rule="evenodd" clip-rule="evenodd" d="M638.723 1347.28C649.089 1347.76 659.516 1348 670 1348C1040.03 1348 1340 1046.24 1340 674C1340 301.76 1040.03 0 670 0C299.969 0 0 301.76 0 674C0 1001.5 232.191 1274.44 540.005 1335.32C540.002 1335.55 540 1335.77 540 1336C540 1363.61 562.386 1386 590 1386C613.736 1386 633.609 1369.46 638.723 1347.28ZM670 1346C1038.92 1346 1338 1045.15 1338 674C1338 302.853 1038.92 2 670 2C301.085 2 2 302.853 2 674C2 1000.42 233.344 1272.47 540.072 1333.3C541.476 1306.94 563.293 1286 590 1286C617.614 1286 640 1308.39 640 1336C640 1339.18 639.704 1342.28 639.138 1345.3C649.367 1345.76 659.656 1346 670 1346ZM638 1336C638 1362.51 616.51 1384 590 1384C563.49 1384 542 1362.51 542 1336C542 1309.49 563.49 1288 590 1288C616.51 1288 638 1309.49 638 1336Z" fill="white" fill-opacity="0.2"/>
</svg>
