<svg width="64" height="64" viewBox="0 0 64 64" fill="none" xmlns="http://www.w3.org/2000/svg">
<g clip-path="url(#clip0_407_712)">
<path opacity="0.3" d="M34.666 29.5193L39.9993 26.3193V10.666H34.666V29.5193Z" fill="white"/>
<path opacity="0.3" d="M24 10.666V26.3193L29.3333 29.5193V10.666H24Z" fill="white"/>
<path d="M45.3327 27.813V5.33301H18.666V27.813C18.666 28.7463 19.146 29.6263 19.9727 30.1063L31.1193 36.7997L28.4793 43.0397L19.386 43.813L26.2927 49.7863L24.186 58.6663L31.9993 53.9463L39.8127 58.6663L37.7327 49.7863L44.6393 43.813L35.546 43.0397L32.906 36.7997L44.0527 30.1063C44.8527 29.6263 45.3327 28.773 45.3327 27.813ZM29.3327 29.5197L23.9993 26.3197V10.6663H29.3327V29.5197ZM39.9993 26.3197L34.666 29.5197V10.6663H39.9993V26.3197Z" fill="white"/>
</g>
<defs>
<clipPath id="clip0_407_712">
<rect width="64" height="64" fill="white"/>
</clipPath>
</defs>
</svg>
