<svg width="1240" height="483" viewBox="0 0 1240 483" fill="none" xmlns="http://www.w3.org/2000/svg">
<path fill-rule="evenodd" clip-rule="evenodd" d="M1338 -229C1338 142.147 1038.92 443 670 443C659.656 443 649.367 442.764 639.138 442.296C639.012 442.961 638.874 443.622 638.723 444.279C649.089 444.758 659.516 445 670 445C1040.03 445 1340 143.24 1340 -229C1340 -601.24 1040.03 -903 670 -903C299.969 -903 0 -601.24 0 -229C0 98.4972 232.191 371.439 540.005 432.322C540.014 431.644 540.036 430.968 540.072 430.296C233.344 369.469 2 97.4205 2 -229C2 -600.147 301.085 -901 670 -901C1038.92 -901 1338 -600.147 1338 -229Z" fill="white" fill-opacity="0.2"/>
<circle cx="590" cy="433" r="49" stroke="white" stroke-opacity="0.2" stroke-width="2"/>
</svg>
