<svg width="67" height="67" viewBox="0 0 67 67" fill="none" xmlns="http://www.w3.org/2000/svg">
<path fill-rule="evenodd" clip-rule="evenodd" d="M20.0674 33.4991C20.0674 26.0954 26.0895 20.0707 33.5013 20.0707C40.9051 20.0707 46.9272 26.0953 46.9272 33.4991C46.9272 40.9046 40.9051 46.9266 33.5013 46.9266C26.0894 46.9266 20.0674 40.9046 20.0674 33.4991ZM3.73415 32.218C3.27091 33.0559 3.27091 33.9424 3.73415 34.781C9.74832 45.5809 21.1535 52.2899 33.5013 52.2899C45.8409 52.2899 57.2462 45.581 63.2604 34.781C63.7316 33.9424 63.7316 33.0559 63.2604 32.218C57.2462 21.4182 45.841 14.71 33.5013 14.71C21.1535 14.71 9.74832 21.4182 3.73415 32.218ZM33.5013 24.4715C28.5175 24.4715 24.468 28.5209 24.468 33.4991C24.468 38.4773 28.5173 42.5267 33.5013 42.5267C38.4771 42.5267 42.5264 38.4774 42.5264 33.4991C42.5264 28.5209 38.4771 24.4715 33.5013 24.4715Z" fill="white"/>
</svg>
