<svg width="64" height="64" viewBox="0 0 64 64" fill="none" xmlns="http://www.w3.org/2000/svg">
<g clip-path="url(#clip0_407_760)">
<path opacity="0.3" d="M32.0005 16C21.8938 16 12.8805 21.68 8.48047 30.6667C12.8805 39.6533 21.8938 45.3333 32.0005 45.3333C42.1071 45.3333 51.1205 39.6533 55.5205 30.6667C51.1205 21.68 42.1071 16 32.0005 16ZM32.0005 42.6667C25.3871 42.6667 20.0005 37.28 20.0005 30.6667C20.0005 24.0533 25.3871 18.6667 32.0005 18.6667C38.6138 18.6667 44.0005 24.0533 44.0005 30.6667C44.0005 37.28 38.6138 42.6667 32.0005 42.6667Z" fill="white"/>
<path d="M31.9993 10.667C18.666 10.667 7.27935 18.9603 2.66602 30.667C7.27935 42.3737 18.666 50.667 31.9993 50.667C45.3327 50.667 56.7193 42.3737 61.3327 30.667C56.7193 18.9603 45.3327 10.667 31.9993 10.667ZM31.9993 45.3337C21.8927 45.3337 12.8793 39.6537 8.47935 30.667C12.8793 21.6803 21.8927 16.0003 31.9993 16.0003C42.106 16.0003 51.1194 21.6803 55.5193 30.667C51.1194 39.6537 42.106 45.3337 31.9993 45.3337ZM31.9993 18.667C25.386 18.667 19.9993 24.0537 19.9993 30.667C19.9993 37.2803 25.386 42.667 31.9993 42.667C38.6127 42.667 43.9994 37.2803 43.9994 30.667C43.9994 24.0537 38.6127 18.667 31.9993 18.667ZM31.9993 37.3337C28.3193 37.3337 25.3327 34.347 25.3327 30.667C25.3327 26.987 28.3193 24.0003 31.9993 24.0003C35.6794 24.0003 38.666 26.987 38.666 30.667C38.666 34.347 35.6794 37.3337 31.9993 37.3337Z" fill="white"/>
</g>
<defs>
<clipPath id="clip0_407_760">
<rect width="64" height="64" fill="white"/>
</clipPath>
</defs>
</svg>
