<svg width="1340" height="1387" viewBox="0 0 1340 1387" fill="none" xmlns="http://www.w3.org/2000/svg">
<path fill-rule="evenodd" clip-rule="evenodd" d="M637.95 1347.24C648.571 1347.75 659.256 1348 670 1348C1040.03 1348 1340 1046.24 1340 674C1340 301.76 1040.03 0 670 0C299.969 0 0 301.76 0 674C0 1001.15 231.704 1273.87 539.034 1335.13C539.011 1335.75 539 1336.37 539 1337C539 1364.61 561.386 1387 589 1387C613.104 1387 633.224 1369.94 637.95 1347.24ZM670 1346C1038.92 1346 1338 1045.15 1338 674C1338 302.853 1038.92 2 670 2C301.085 2 2 302.853 2 674C2 1000.09 232.88 1271.92 539.149 1333.11C541.133 1307.32 562.694 1287 589 1287C616.614 1287 639 1309.39 639 1337C639 1339.81 638.768 1342.57 638.321 1345.26C648.819 1345.75 659.381 1346 670 1346ZM637 1337C637 1363.51 615.51 1385 589 1385C562.49 1385 541 1363.51 541 1337C541 1310.49 562.49 1289 589 1289C615.51 1289 637 1310.49 637 1337Z" fill="white" fill-opacity="0.2"/>
</svg>
