<svg width="1021" height="484" viewBox="0 0 1021 484" fill="none" xmlns="http://www.w3.org/2000/svg">
<path fill-rule="evenodd" clip-rule="evenodd" d="M1338 -229C1338 142.147 1038.92 443 670 443C659.381 443 648.819 442.751 638.321 442.258C638.211 442.924 638.087 443.585 637.95 444.242C648.571 444.746 659.256 445 670 445C1040.03 445 1340 143.24 1340 -229C1340 -601.24 1040.03 -903 670 -903C299.969 -903 0 -601.24 0 -229C0 98.153 231.704 370.866 539.034 432.13C539.059 431.454 539.097 430.781 539.149 430.113C232.88 368.923 2 97.093 2 -229C2 -600.147 301.085 -901 670 -901C1038.92 -901 1338 -600.147 1338 -229Z" fill="white" fill-opacity="0.2"/>
<circle cx="589" cy="434" r="49" stroke="white" stroke-opacity="0.2" stroke-width="2"/>
</svg>
